<svg width="28" height="35" viewBox="0 0 28 35" fill="none" xmlns="http://www.w3.org/2000/svg">
<path d="M27.7559 14.6764C27.8858 13.8546 27.9668 12.9535 27.9872 11.9431C27.9794 7.61054 25.9054 6.07749 25.5063 5.35879C26.094 2.07607 25.409 0.582873 25.0904 0.0717085C23.9152 -0.345413 21.0018 1.1483 19.4099 2.19981C16.8145 1.44008 11.3297 1.51423 9.27286 2.39645C5.47781 -0.320989 3.47059 0.0933543 3.47059 0.0933543C3.47059 0.0933543 2.17293 2.42029 3.12755 5.82447C1.87889 7.41566 0.948186 8.54066 0.948186 11.5247C0.948186 12.2394 0.992575 12.9147 1.0679 13.5645C2.14324 19.2186 6.62343 21.6578 11.0243 22.0785C10.362 22.5817 9.56698 23.5339 9.45699 24.6374C8.62487 25.1754 6.95104 25.3532 5.64944 24.944C3.8257 24.3677 3.12755 20.7562 0.396435 21.2714C-0.194512 21.382 -0.077068 21.7718 0.434682 22.1041C1.26673 22.6438 2.05037 23.3146 2.65441 24.7502C3.11833 25.8524 4.09408 27.8203 7.17905 27.8203C8.40373 27.8203 9.26152 27.6755 9.26152 27.6755C9.26152 27.6755 9.28485 30.4841 9.28485 31.5795C9.28485 32.8401 7.5836 33.194 7.5836 33.7988C7.5836 34.0393 8.14668 34.0621 8.5992 34.0621C9.49348 34.0621 11.3542 33.3172 11.3542 32.007C11.3542 30.9659 11.3708 27.4671 11.3708 26.8544C11.3708 25.5156 12.0882 25.0894 12.0882 25.0894C12.0882 25.0894 12.176 32.2359 11.9156 33.1941C11.6101 34.3208 11.0567 34.1607 11.0567 34.6622C11.0567 35.4105 13.2937 34.8451 14.0356 33.2072C14.6096 31.9278 14.3525 24.9195 14.3525 24.9195L14.9509 24.9065C14.9509 24.9065 14.9578 28.1162 14.9372 29.5826C14.9156 31.1014 14.7589 33.0214 15.661 33.9276C16.2531 34.5236 18.0672 35.5694 18.0672 34.6137C18.0672 34.0598 16.7968 33.6021 16.7968 32.1015V25.1889C17.5686 25.1889 17.7281 27.4611 17.7281 27.4611L18.0062 31.6826C18.0062 31.6826 17.8215 33.223 19.6703 33.8659C20.323 34.0945 21.7192 34.1567 21.7847 33.773C21.8503 33.3883 20.1035 32.8195 20.0869 31.6272C20.0779 30.9011 20.1194 30.4761 20.1194 27.3175C20.1194 24.1607 19.6953 22.9929 18.2176 22.0623C22.5029 21.6225 26.954 19.7087 27.7559 14.6764Z" fill="#444444"/>
</svg>
