<svg width="35" height="29" viewBox="0 0 35 29" fill="none" xmlns="http://www.w3.org/2000/svg">
<path d="M35 3.36656C33.6984 3.9375 32.3116 4.31594 30.8656 4.49969C32.3531 3.61156 33.4884 2.21594 34.0222 0.53375C32.6353 1.36062 31.1041 1.94469 29.4722 2.27063C28.1553 0.868438 26.2784 0 24.2309 0C20.2584 0 17.0603 3.22438 17.0603 7.17719C17.0603 7.74594 17.1084 8.29281 17.2266 8.81344C11.2612 8.5225 5.98281 5.66344 2.43687 1.30813C1.81781 2.38219 1.45469 3.61156 1.45469 4.935C1.45469 7.42 2.73438 9.62281 4.64187 10.8981C3.48906 10.8762 2.35812 10.5416 1.4 10.0144C1.4 10.0363 1.4 10.0647 1.4 10.0931C1.4 13.58 3.88719 16.4762 7.14875 17.1434C6.56469 17.3031 5.92812 17.3797 5.2675 17.3797C4.80813 17.3797 4.34437 17.3534 3.90906 17.2572C4.83875 20.0987 7.47688 22.1878 10.6138 22.2556C8.1725 24.1653 5.07281 25.3159 1.71719 25.3159C1.12875 25.3159 0.564375 25.2897 0 25.2175C3.17844 27.2672 6.94531 28.4375 11.0075 28.4375C24.2113 28.4375 31.43 17.5 31.43 8.01937C31.43 7.70219 31.4191 7.39594 31.4037 7.09188C32.8278 6.08125 34.0244 4.81906 35 3.36656Z" fill="#444444"/>
</svg>
