<svg width="33" height="35" viewBox="0 0 33 35" fill="none" xmlns="http://www.w3.org/2000/svg">
<path d="M5.91789 6.83484C6.39914 7.20125 6.89352 7.55016 7.40648 7.86188C7.14508 8.49188 6.9132 9.15687 6.70539 9.84375H8.81305C8.93336 9.49156 9.0482 9.13391 9.18492 8.79922C10.1616 9.24656 11.1799 9.58781 12.2245 9.84375H20.3959C21.4535 9.58672 22.4871 9.23781 23.4715 8.78062C23.6082 9.11969 23.722 9.485 23.8466 9.84375H25.9149C25.7082 9.15578 25.4774 8.49297 25.2138 7.86188C25.729 7.55016 26.2245 7.20125 26.7013 6.83484C27.6201 7.72953 28.4207 8.74125 29.0846 9.84375H32.0246C29.1765 4.02719 23.2123 0 16.3096 0C9.40477 0 3.44273 4.02719 0.595703 9.84375H3.53352C4.19852 8.74125 4.99914 7.72734 5.91789 6.83484ZM25.1766 5.54859C24.9076 5.74109 24.6374 5.93031 24.3563 6.10531C24.0074 5.46328 23.6279 4.85406 23.2177 4.305C23.909 4.66594 24.5587 5.08703 25.1766 5.54859ZM22.6446 7.02406C21.7609 7.42984 20.8509 7.75688 19.9146 7.98656C19.6532 6.09656 19.2759 4.27219 18.7388 2.87656C20.2504 3.64109 21.5891 5.09141 22.6446 7.02406ZM16.1105 2.60203C16.1773 2.60094 16.2418 2.59328 16.3096 2.59328C16.3774 2.59328 16.442 2.60094 16.5087 2.60203C16.9877 3.38625 17.5641 5.34406 17.9896 8.32125C17.4329 8.38688 16.8729 8.42844 16.3107 8.42844C15.7452 8.42844 15.1863 8.38688 14.6318 8.32125C15.0551 5.34406 15.6315 3.38625 16.1105 2.60203ZM13.8695 2.90719C13.339 4.29844 12.9649 6.10859 12.7046 7.98766C11.7826 7.76234 10.8879 7.44078 10.0216 7.04703C11.0727 5.13187 12.3929 3.68156 13.8695 2.90719ZM9.3993 4.305C8.99023 4.85406 8.61289 5.46437 8.25961 6.10531C7.97961 5.93141 7.70945 5.74219 7.44039 5.54969C8.05945 5.08703 8.70805 4.66594 9.3993 4.305Z" fill="#444444"/>
<path d="M26.702 28.1663C26.2229 27.7988 25.7241 27.4509 25.2145 27.137C25.4737 26.5092 25.7066 25.8442 25.9155 25.1562H23.8473C23.728 25.515 23.611 25.8781 23.4743 26.2183C22.4888 25.7611 21.453 25.4155 20.3976 25.1562H12.2273C11.1827 25.4122 10.1655 25.7545 9.18883 26.2008C9.04992 25.865 8.93617 25.5062 8.81477 25.1562H6.7082C6.91492 25.8442 7.1468 26.5081 7.4082 27.1381C6.89414 27.4498 6.40086 27.7987 5.91961 28.1641C5.00195 27.2716 4.20133 26.2587 3.53852 25.1562H0.599609C3.44664 30.9706 9.40867 35 16.3124 35C23.2162 35 29.1793 30.9706 32.0263 25.1562H29.0863C28.4213 26.2587 27.6207 27.2716 26.702 28.1663ZM7.44102 29.4525C7.71008 29.26 7.98133 29.0697 8.26023 28.8969C8.61352 29.5378 8.99086 30.147 9.39992 30.6961C8.70867 30.3341 8.06008 29.9141 7.44102 29.4525ZM10.0201 27.9552C10.8863 27.5658 11.781 27.2409 12.703 27.0167C12.9634 28.8969 13.3374 30.7005 13.8679 32.0972C12.3935 31.3195 11.0734 29.867 10.0201 27.9552ZM16.5093 32.398C16.4426 32.4002 16.378 32.4067 16.3102 32.4067C16.2424 32.4067 16.1779 32.4002 16.1112 32.398C15.6321 31.6138 15.0546 29.6548 14.6302 26.6788C15.1848 26.6131 15.7448 26.5705 16.3091 26.5705C16.8746 26.5705 17.4335 26.6131 17.9891 26.6788C17.5615 29.6548 16.9884 31.6138 16.5093 32.398ZM18.7395 32.1223C19.2765 30.7278 19.6538 28.9034 19.9152 27.0123C20.8515 27.2431 21.7615 27.5702 22.6452 27.9759C21.5898 29.9097 20.251 31.36 18.7395 32.1223ZM23.2184 30.695C23.6285 30.1437 24.008 29.5334 24.357 28.8947C24.638 29.0697 24.9082 29.26 25.1773 29.4525C24.5593 29.9141 23.9096 30.3341 23.2184 30.695Z" fill="#444444"/>
<path d="M4.05234 20.9775L4.74906 18.5319C4.93391 17.88 5.07609 17.238 5.20406 16.3695H5.2325C5.37469 17.2227 5.50266 17.8505 5.67328 18.5319L6.32734 20.9775H8.36063L10.4934 14.0267H8.37594L7.77875 16.7841C7.62234 17.5814 7.48016 18.3623 7.38062 19.1586H7.35219C7.21 18.3613 7.02516 17.5825 6.84031 16.7983L6.14359 14.0267H4.43734L3.69797 16.8836C3.52734 17.565 3.32828 18.3634 3.18609 19.1586H3.15766C3.04391 18.3613 2.90172 17.5934 2.75953 16.8683L2.205 14.0234H0L2.01906 20.9764H4.05234V20.9775Z" fill="#444444"/>
<path d="M18.8383 16.7821C18.6797 17.5795 18.5408 18.3604 18.4424 19.1577H18.4129C18.2718 18.3604 18.0858 17.5805 17.9021 16.7963L17.2021 14.0248H15.4958L14.7564 16.8816C14.5858 17.5641 14.3868 18.3615 14.2446 19.1577H14.2161C14.1024 18.3604 13.9602 17.5915 13.818 16.8663L13.2635 14.0215H11.0596L13.0786 20.9745H15.1119L15.8086 18.5299C15.9935 17.8748 16.1357 17.2349 16.2636 16.3665H16.2921C16.4343 17.2196 16.5633 17.8474 16.7339 18.5299L17.388 20.9745H19.4213L21.5508 14.0215H19.4311L18.8383 16.7821Z" fill="#444444"/>
<path d="M29.903 16.7821C29.7455 17.5795 29.6044 18.3604 29.506 19.1577H29.4786C29.3375 18.3604 29.1505 17.5805 28.9657 16.7963L28.2689 14.0248H26.5605L25.82 16.8816C25.6505 17.5641 25.4504 18.3615 25.3071 19.1577H25.2808C25.1671 18.3604 25.026 17.5915 24.8838 16.8663L24.3282 14.0215H22.1221L24.1444 20.9745H26.1744L26.8744 18.5299C27.0582 17.8748 27.2014 17.2349 27.3294 16.3665H27.3557C27.4968 17.2196 27.6247 17.8474 27.7954 18.5299L28.4494 20.9745H30.4827L32.6144 14.0215H30.4947L29.903 16.7821Z" fill="#444444"/>
</svg>
